<svg xmlns="http://www.w3.org/2000/svg" xmlns:xlink="http://www.w3.org/1999/xlink">
<symbol id="widget__icon">
<path fill="currentColor" d="M20 0C31.046 0 40 8.954 40 20C40 31.046 31.046 40 20 40C16.22 40 12.68 38.95 9.66402 37.124L3.60002 38.908C3.25185 39.0104 2.88252 39.0172 2.53085 38.9275C2.17918 38.8379 1.85816 38.6551 1.60154 38.3985C1.34491 38.1419 1.16217 37.8208 1.07251 37.4692C0.982847 37.1175 0.989587 36.7482 1.09202 36.4L2.87602 30.336C0.989935 27.2186 -0.00482809 23.6435 1.76191e-05 20C1.76191e-05 8.954 8.95402 0 20 0ZM20 4C17.1353 3.99948 14.3229 4.76811 11.8567 6.22563C9.39042 7.68315 7.36073 9.77608 5.97954 12.2859C4.59836 14.7957 3.91635 17.6303 4.00473 20.4937C4.09312 23.357 4.94866 26.1442 6.48202 28.564C6.93602 29.278 7.09202 30.178 6.83602 31.044L5.95402 34.046L8.95602 33.164C9.82202 32.908 10.722 33.064 11.436 33.518C13.5327 34.8456 15.9094 35.6672 18.3783 35.9181C20.8472 36.1689 23.3406 35.842 25.6614 34.9632C27.9822 34.0844 30.0668 32.6778 31.7504 30.8546C33.4339 29.0314 34.6703 26.8415 35.3618 24.4582C36.0532 22.0749 36.1809 19.5634 35.7345 17.1222C35.2882 14.6811 34.2801 12.3772 32.79 10.3928C31.2999 8.4083 29.3686 6.79767 27.1489 5.68816C24.9291 4.57866 22.4816 4.00071 20 4ZM13 17C13.7957 17 14.5587 17.3161 15.1213 17.8787C15.6839 18.4413 16 19.2044 16 20C16 20.7956 15.6839 21.5587 15.1213 22.1213C14.5587 22.6839 13.7957 23 13 23C12.2044 23 11.4413 22.6839 10.8787 22.1213C10.3161 21.5587 10 20.7956 10 20C10 19.2044 10.3161 18.4413 10.8787 17.8787C11.4413 17.3161 12.2044 17 13 17ZM27 17C27.7957 17 28.5587 17.3161 29.1213 17.8787C29.6839 18.4413 30 19.2044 30 20C30 20.7956 29.6839 21.5587 29.1213 22.1213C28.5587 22.6839 27.7957 23 27 23C26.2044 23 25.4413 22.6839 24.8787 22.1213C24.3161 21.5587 24 20.7956 24 20C24 19.2044 24.3161 18.4413 24.8787 17.8787C25.4413 17.3161 26.2044 17 27 17Z"/>
</symbol>
</svg>